# xmcd
#
# Track frame offsets: 
#        150
#        13927
#        24486
#        36677
#        47333
#        57850
#        71548
#        83878
#        96124
#        107644
#        118024
#        130244
#        142032
#        154835
#        169438
#        181870
#        193544
#        202798
#        212010
#        221747
#        231487
#        240604
#        251069
#        264306
#        275770
#        285185
#        294657
#        302908
#        312512
#        324520
#        336489
#        347852
#
# Disc length: 4753 seconds
#
# Revision: 0
# Processed by: cddbd v1.5.2PL0 Copyright (c) Steve Scherf et al.
# Submitted via: ExactAudioCopyFreeDBPlugin 1.0
#
DISCID=f2128f20
DTITLE=Various Artist - Wail Man Wail!: The Best Of King Curtis 1952-
DTITLE=1961 [CD1]
DYEAR=2012
DGENRE=R&B
TTITLE0=King Curtis and His Tenor Sax with Orchestra, vocals Melvin Dani
TTITLE0=els - No More Crying On My Pillow
TTITLE1=King Curtis and His Tenor Sax with Orchestra - Tenor In The Sky
TTITLE2=King Curtis - Movin' On
TTITLE3=King Curtis - Rockabye Baby
TTITLE4=King Curtis - Open Up
TTITLE5=King Curtis - King's Rock
TTITLE6=King Curtis - Dynamite At Midnight
TTITLE7=King Curtis - The Stranger
TTITLE8=King Curtis - Steel Guitar Rag
TTITLE9=King Curtis - Wicky Wacky, Pt. 1
TTITLE10=King Curtis - Wicky Wacky, Pt. 2
TTITLE11=King Curtis and Count Hastings with Leroy Kirkland's Hi-Flyers 
TTITLE11=/ The Count And The King
TTITLE12=The King's Henchmen - The King
TTITLE13=King Curtis and Count Hastings with Leroy Kirkland's Hi-Flyers 
TTITLE13=/ Battle Royal
TTITLE14=King Curtis and His Royal Men - Jest Smoochin'
TTITLE15=King Curtis and His Royal Men - Birth Of The Blues
TTITLE16=King Curtis and His Orchestra - Ific
TTITLE17=King Curtis and His Orchestra - You Made Me Love You
TTITLE18=King Curtis and His Orchestra - Castle Rock
TTITLE19=King Curtis and His Orchestra - Chili
TTITLE20=King Curtis and His Orchestra - Honeydripper, Pt. 1
TTITLE21=King Curtis and His Orchestra - Honeydripper, Pt. 2
TTITLE22=King Curtis - Peter Gunn
TTITLE23=King Curtis and His Orchestra - Heavenly Blues
TTITLE24=King Curtis and His Orchestra - Restless Guitar
TTITLE25=King Curtis - King Neptune's Guitar
TTITLE26=King Curtis - Beatnik Hoedown
TTITLE27=King Curtis Combo - The Lone Prairie
TTITLE28=King Curtis Combo - Jay Walk
TTITLE29=Sonny Jackson - St Louis Blues
TTITLE30=Sonny Jackson - My Babe
TTITLE31=King Curtis - Hot-Rod
EXTD=
EXTT0=
EXTT1=
EXTT2=
EXTT3=
EXTT4=
EXTT5=
EXTT6=
EXTT7=
EXTT8=
EXTT9=
EXTT10=
EXTT11=
EXTT12=
EXTT13=
EXTT14=
EXTT15=
EXTT16=
EXTT17=
EXTT18=
EXTT19=
EXTT20=
EXTT21=
EXTT22=
EXTT23=
EXTT24=
EXTT25=
EXTT26=
EXTT27=
EXTT28=
EXTT29=
EXTT30=
EXTT31=
PLAYORDER=
